<?xml version="1.0" encoding="utf-8"?>
<!-- Generator: Adobe Illustrator 26.3.1, SVG Export Plug-In . SVG Version: 6.00 Build 0)  -->
<svg version="1.1" id="Camada_1" xmlns="http://www.w3.org/2000/svg" xmlns:xlink="http://www.w3.org/1999/xlink" x="0px" y="0px"
	 viewBox="0 0 1024 1024" style="enable-background:new 0 0 1024 1024;" xml:space="preserve">
<style type="text/css">
	.st0{fill:#FFFFFF;}
	.st1{fill-rule:evenodd;clip-rule:evenodd;fill:url(#SVGID_1_);}
	.st2{fill-rule:evenodd;clip-rule:evenodd;fill:url(#SVGID_00000159470394002878043440000004160650943336712330_);}
	.st3{fill:#575756;}
</style>
<rect class="st0" width="1024" height="1024"/>
<linearGradient id="SVGID_1_" gradientUnits="userSpaceOnUse" x1="921.6483" y1="493.4064" x2="933.9544" y2="493.4064">
	<stop  offset="0.1667" style="stop-color:#1C75B6"/>
	<stop  offset="0.3678" style="stop-color:#2079B5"/>
	<stop  offset="0.5684" style="stop-color:#2A85B3"/>
	<stop  offset="0.7688" style="stop-color:#3C99AF"/>
	<stop  offset="0.9681" style="stop-color:#54B5A9"/>
	<stop  offset="1" style="stop-color:#59BAA8"/>
</linearGradient>
<ellipse class="st1" cx="927.8" cy="493.41" rx="6.15" ry="6.01"/>
<g>
	
		<linearGradient id="SVGID_00000060750080687445528090000002923314115251907773_" gradientUnits="userSpaceOnUse" x1="655.3752" y1="507.6928" x2="913.2098" y2="507.6928">
		<stop  offset="0.1667" style="stop-color:#1C75B6"/>
		<stop  offset="1" style="stop-color:#59BAA8"/>
	</linearGradient>
	<path style="fill-rule:evenodd;clip-rule:evenodd;fill:url(#SVGID_00000060750080687445528090000002923314115251907773_);" d="
		M665.99,681.76c-10.73,5.01-10.73-31.12-10.58-37.12c3.22-65.67,51-250.37,94.71-297.48c21.89-23.5,45.78-16.27,56.15,13.13
		c6.44,18.5,14.02,63.96,17.03,89.67c2.5,0.46,4.93,0.86,7.3,1.32c19.6,4.01,58.51,15.74,74.75,25.25l7.87,5.73
		c-12.16-0.79-7.08,0-18.67-2.51c-20.46-4.4-45.5-10.09-69.68-12.52c3.01,40.35,5.01,126.83-43.77,129.48
		c-39.2,2.15-66.96-56.44-64.38-91.78c3.22-41.38,34.41-55.58,68.67-57.33c-3.57-29.9-8.15-62.52-12.38-76.75
		c-1.36,1.46-2.72,3.11-3.79,4.33c-37.56,46.49-91.07,209.16-102.79,270.75C664.34,656.87,660.55,671.46,665.99,681.76
		L665.99,681.76z M787.53,467.23c-4.08,0.54-7.87,1.25-11.59,2.11c-40.84,10.09-40.13,46.21-21.03,76
		c3.65,5.58,18.09,23.18,24.75,20.1c11.23-5.36,11.59-49.5,10.94-61.16C790.46,498.31,789.24,484.36,787.53,467.23L787.53,467.23z
		 M777.8,366.65c0.07-0.07,0.21-0.1,0.29-0.18C778.01,366.54,777.86,366.58,777.8,366.65L777.8,366.65z"/>
</g>
<g>
	<path class="st3" d="M181.07,451.38c0.32,0.08,0.64,0.12,0.97,0.12c0.24,0,0.54,0.02,0.91,0.06c0.36,0.04,0.7,0.1,1.03,0.18
		c0.08,0,0.18,0.02,0.3,0.06c0.12,0.04,0.22,0.06,0.3,0.06c0.16,0.08,0.34,0.12,0.54,0.12c0.2,0,0.42,0.04,0.66,0.12
		c0.4,0.08,0.78,0.14,1.15,0.18c0.36,0.04,0.7,0.1,1.03,0.18c0.08,0,0.16,0,0.24,0h0.12v0.12h0.12h0.12c0.16,0,0.28,0,0.36,0v0.12
		c0.16,0,0.28,0,0.36,0c0.24,0.16,0.5,0.32,0.79,0.48c0.28,0.16,0.58,0.32,0.9,0.48c0.24,0.24,0.5,0.44,0.79,0.6
		c0.28,0.16,0.54,0.32,0.78,0.48c0.4,0.24,0.74,0.5,1.03,0.78c0.28,0.28,0.58,0.54,0.91,0.78c0.16,0.16,0.32,0.3,0.48,0.42
		c0.16,0.12,0.32,0.26,0.48,0.42c0.16,0.16,0.3,0.3,0.42,0.42c0.12,0.12,0.26,0.26,0.42,0.42c0.32,0.32,0.62,0.62,0.9,0.91
		c0.28,0.28,0.54,0.58,0.79,0.91c0.16,0.24,0.34,0.48,0.54,0.72c0.2,0.24,0.38,0.44,0.54,0.6c0.16,0.24,0.34,0.48,0.54,0.72
		c0.2,0.24,0.38,0.48,0.54,0.72l27.16,61.08c-0.08,0.24-0.14,0.44-0.18,0.6c-0.04,0.16-0.06,0.36-0.06,0.6
		c-0.08,0.16-0.14,0.32-0.18,0.48c-0.04,0.16-0.1,0.32-0.18,0.48c-0.08,0.16-0.16,0.3-0.24,0.42c-0.08,0.12-0.12,0.26-0.12,0.42
		c-0.08,0.08-0.16,0.18-0.24,0.3c-0.08,0.12-0.16,0.26-0.24,0.42c-0.16,0.08-0.3,0.18-0.42,0.3c-0.12,0.12-0.26,0.26-0.42,0.42
		c-0.16,0.08-0.3,0.18-0.42,0.3c-0.12,0.12-0.26,0.22-0.42,0.3c-0.08,0.08-0.2,0.18-0.36,0.3c-0.16,0.12-0.28,0.22-0.36,0.3
		c-0.08,0-0.14,0-0.18,0c-0.04,0-0.1,0-0.18,0c-0.08,0.08-0.16,0.14-0.24,0.18c-0.08,0.04-0.16,0.1-0.24,0.18c-0.08,0-0.2,0-0.36,0
		c-0.08,0-0.14,0-0.18,0c-0.04,0-0.06,0.04-0.06,0.12h-0.12c-0.08,0-0.16,0-0.24,0h-0.12c-0.08,0-0.12,0.04-0.12,0.12h-0.12
		c-0.08,0-0.16,0.04-0.24,0.12c-0.08,0-0.16,0-0.24,0c-0.08,0-0.14,0-0.18,0c-0.04,0-0.06,0.04-0.06,0.12
		c-0.08,0-0.14,0.02-0.18,0.06c-0.04,0.04-0.1,0.06-0.18,0.06c-0.08,0-0.16,0-0.24,0c-0.08,0-0.16,0-0.24,0c-0.08,0-0.14,0-0.18,0
		c-0.04,0-0.06,0.04-0.06,0.12c-0.16,0-0.3,0-0.42,0c-0.12,0-0.22,0-0.3,0c-0.16,0-0.34,0.02-0.54,0.06
		c-0.2,0.04-0.38,0.1-0.54,0.18c-0.08,0-0.16,0-0.24,0c-0.08,0-0.16,0-0.24,0c-0.08,0-0.16,0-0.24,0c-0.08,0-0.14,0.02-0.18,0.06
		c-0.04,0.04-0.1,0.06-0.18,0.06c-0.08,0-0.16,0-0.24,0c-0.08,0-0.16,0-0.24,0c-0.08,0-0.16,0-0.24,0c-0.08,0-0.14,0-0.18,0
		c-0.04,0-0.1,0-0.18,0h-0.12c-0.08,0-0.16,0-0.24,0h-0.12c-0.08-0.08-0.2-0.12-0.36-0.12h-0.12h-0.12c-0.08,0-0.16,0-0.24,0
		c-0.08,0-0.16,0-0.24,0c-0.08,0-0.16,0-0.24,0c-0.08,0-0.14,0-0.18,0c-0.04,0-0.1,0-0.18,0c-0.08-0.08-0.16-0.12-0.24-0.12
		c-0.08-0.08-0.16-0.12-0.24-0.12c-0.08,0-0.16,0-0.24,0c-0.08,0-0.14,0-0.18,0c-0.04,0-0.1,0-0.18,0
		c-0.08-0.08-0.16-0.12-0.24-0.12c-0.08-0.08-0.16-0.12-0.24-0.12c-0.08,0-0.16,0-0.24,0c-0.08-0.08-0.14-0.12-0.18-0.12
		c-0.04,0-0.1,0-0.18,0c-0.24-0.08-0.46-0.18-0.66-0.3c-0.2-0.12-0.38-0.26-0.54-0.42c-0.08,0-0.18,0-0.3,0
		c-0.12,0-0.22-0.04-0.3-0.12c-0.08-0.08-0.2-0.16-0.36-0.24c-0.16-0.08-0.28-0.2-0.36-0.36c-0.16-0.08-0.3-0.18-0.42-0.3
		c-0.12-0.12-0.26-0.22-0.42-0.3c-0.32-0.16-0.6-0.36-0.85-0.6c-0.24-0.24-0.44-0.48-0.6-0.72c-0.32-0.24-0.58-0.48-0.78-0.72
		c-0.2-0.24-0.38-0.52-0.54-0.84l-27.16-60.47l-0.12,0.12c-0.08,0-0.16,0-0.24,0c-0.08,0-0.12-0.04-0.12-0.12c-0.08,0-0.2,0-0.36,0
		c0-0.08,0-0.16,0-0.24c-0.08,0-0.16,0-0.24,0c-0.08,0-0.14,0-0.18,0c-0.04,0-0.1,0-0.18,0h-0.12c-0.08-0.08-0.16-0.16-0.24-0.24
		h-0.12c-0.08,0-0.16,0-0.24,0c-0.08,0-0.12-0.02-0.12-0.06c0-0.04,0-0.1,0-0.18h-0.12h-0.12l-0.12,0.12c-0.08,0-0.16,0-0.24,0
		h-0.12c-0.08,0-0.16,0-0.24,0l-0.12,0.12c-0.16,0.08-0.3,0.14-0.42,0.18c-0.12,0.04-0.22,0.06-0.3,0.06
		c-0.08,0-0.16,0.04-0.24,0.12c-0.08,0.08-0.14,0.12-0.18,0.12c-0.04,0-0.1,0-0.18,0c-0.08,0.08-0.16,0.12-0.24,0.12
		c-0.08,0.08-0.16,0.12-0.24,0.12c-0.08,0-0.16,0.04-0.24,0.12c-0.08,0.08-0.14,0.12-0.18,0.12c-0.04,0-0.1,0-0.18,0l-0.12,0.12
		c-0.08,0-0.16,0.04-0.24,0.12h-0.12c-0.08,0.08-0.16,0.12-0.24,0.12l-23.9,36.45c-0.08,0.08-0.12,0.16-0.12,0.24
		c-0.08,0.08-0.14,0.14-0.18,0.18c-0.04,0.04-0.06,0.1-0.06,0.18c0,0.08,0,0.14,0,0.18c0,0.04,0,0.1,0,0.18c0,0.08,0,0.16,0,0.24
		v0.12c-0.08,0.08-0.12,0.16-0.12,0.24v0.12c0,0.08,0,0.16,0,0.24v0.12c-0.08,0.08-0.16,0.16-0.24,0.24v0.12c0,0.08,0,0.14,0,0.18
		c0,0.04,0,0.1,0,0.18c0,0.08,0,0.14,0,0.18c0,0.04,0,0.1,0,0.18c0,0.81,0.1,1.61,0.3,2.41c0.2,0.81,0.58,1.57,1.15,2.29
		c0.56,0.72,1.27,1.39,2.11,1.99c0.85,0.6,1.79,1.19,2.84,1.75c0.97,0.56,1.99,1.05,3.08,1.45c1.09,0.4,2.23,0.77,3.44,1.09
		c1.13,0.32,2.31,0.56,3.56,0.72c1.25,0.16,2.51,0.24,3.8,0.24h0.12h0.12c0.16,0,0.28,0,0.36,0h0.12c0.08,0,0.16,0,0.24,0h0.12
		c0.08,0,0.16,0,0.24,0h0.12c0.08,0,0.14,0,0.18,0c0.04,0,0.1,0,0.18,0c0.08,0,0.16,0,0.24,0h0.12c0.08,0,0.16,0,0.24,0l0.12-0.12
		h0.12h0.12c0.16,0,0.28,0,0.36,0h0.12h0.12h0.12c0.16,0,0.28,0,0.36,0c0.16,0,0.28,0,0.36,0h0.12c0.08,0,0.16,0,0.24,0l0.12-0.12
		c0.08,0,0.16,0,0.24,0h0.12c0.08,0,0.18-0.02,0.3-0.06c0.12-0.04,0.22-0.06,0.3-0.06c0.16-0.08,0.34-0.14,0.54-0.18
		c0.2-0.04,0.42-0.1,0.66-0.18c0.4-0.16,0.74-0.3,1.03-0.42c0.28-0.12,0.54-0.22,0.78-0.3c0.08,0,0.12-0.02,0.12-0.06
		c0-0.04,0.04-0.06,0.12-0.06c0.08,0,0.16-0.04,0.24-0.12c0.08-0.08,0.16-0.12,0.24-0.12c0.16-0.08,0.34-0.14,0.54-0.18
		c0.2-0.04,0.38-0.1,0.54-0.18c0.08,0,0.12-0.02,0.12-0.06c0-0.04,0.04-0.06,0.12-0.06c0.08,0,0.16-0.04,0.24-0.12
		c0.08-0.08,0.16-0.12,0.24-0.12c0.08,0,0.16-0.02,0.24-0.06c0.08-0.04,0.16-0.1,0.24-0.18c0.08,0,0.16-0.02,0.24-0.06
		c0.08-0.04,0.16-0.06,0.24-0.06c0.16,0,0.28,0,0.36,0c0.16-0.08,0.28-0.16,0.36-0.24h0.12c0.08-0.08,0.16-0.12,0.24-0.12l0.12-0.12
		c0.08,0,0.14,0,0.18,0c0.04,0,0.1-0.04,0.18-0.12c0.08-0.08,0.16-0.12,0.24-0.12c0.08,0,0.16-0.04,0.24-0.12
		c0.08,0,0.16-0.04,0.24-0.12l7.84-5.19c0.16,0.08,0.36,0.16,0.6,0.24c0.24,0.08,0.52,0.16,0.84,0.24c0.16,0.08,0.36,0.16,0.6,0.24
		c0.24,0.08,0.52,0.16,0.85,0.24c0.08,0.08,0.18,0.14,0.3,0.18c0.12,0.04,0.22,0.1,0.3,0.18c0.08,0.08,0.18,0.14,0.3,0.18
		c0.12,0.04,0.22,0.1,0.3,0.18c0.08,0.08,0.18,0.16,0.3,0.24c0.12,0.08,0.26,0.12,0.42,0.12c0.08,0.08,0.18,0.16,0.3,0.24
		c0.12,0.08,0.22,0.16,0.3,0.24c0,0.08,0,0.16,0,0.24c0,0.08,0,0.16,0,0.24v0.12c0,0.08,0,0.16,0,0.24h0.12c0,0.08,0,0.16,0,0.24
		v0.12c0,0.08,0,0.14,0,0.18c0,0.04,0,0.1,0,0.18c0,0.08,0,0.14,0,0.18c0,0.04,0,0.1,0,0.18c0,0.08,0,0.16,0,0.24
		c0.08,0,0.16,0,0.24,0c0,0.08,0,0.16,0,0.24v0.72c-0.16,0.16-0.3,0.3-0.42,0.42c-0.12,0.12-0.26,0.26-0.42,0.42
		c-0.16,0.08-0.3,0.18-0.42,0.3c-0.12,0.12-0.26,0.26-0.42,0.42c-0.08,0.08-0.2,0.18-0.36,0.3c-0.16,0.12-0.28,0.22-0.36,0.3
		c-0.16,0.16-0.3,0.28-0.42,0.36c-0.12,0.08-0.26,0.16-0.42,0.24c-0.08,0.08-0.16,0.14-0.24,0.18c-0.08,0.04-0.16,0.1-0.24,0.18
		c-0.08,0.08-0.16,0.14-0.24,0.18c-0.08,0.04-0.16,0.1-0.24,0.18c-0.08,0.08-0.16,0.16-0.24,0.24c-0.08,0.08-0.16,0.16-0.24,0.24
		c-0.08,0-0.12,0.02-0.12,0.06c0,0.04-0.04,0.06-0.12,0.06c-0.16,0.08-0.34,0.18-0.54,0.3c-0.2,0.12-0.38,0.26-0.54,0.42
		c-0.08,0.08-0.2,0.16-0.36,0.24l-0.12,0.12l-0.12,0.12l-0.12,0.12c-0.48,0.32-0.97,0.66-1.45,1.03c-0.48,0.36-0.97,0.71-1.45,1.03
		c-0.56,0.32-1.09,0.65-1.57,0.97c-0.48,0.32-0.97,0.65-1.45,0.97c-1.05,0.56-2.13,1.15-3.26,1.75c-1.13,0.6-2.29,1.19-3.5,1.75
		c-1.13,0.56-2.29,1.07-3.5,1.51c-1.21,0.44-2.46,0.78-3.74,1.03c-0.64,0.08-1.29,0.14-1.93,0.18c-0.65,0.04-1.29,0.1-1.93,0.18
		c-0.65,0.08-1.29,0.14-1.93,0.18c-0.64,0.04-1.29,0.06-1.93,0.06l-3.5,0.12c-0.08-0.08-0.16-0.14-0.24-0.18
		c-0.08-0.04-0.16-0.1-0.24-0.18h-0.12h-0.12c-0.08,0-0.16,0-0.24,0c-0.08,0-0.16,0-0.24,0h-0.12h-0.12
		c-0.16-0.08-0.32-0.12-0.48-0.12c-0.16,0-0.28,0-0.36,0c-0.16,0-0.3,0-0.42,0s-0.22,0-0.3,0c-0.16,0-0.3,0-0.42,0
		c-0.12,0-0.22,0-0.3,0c-0.16,0-0.3,0-0.42,0c-0.12,0-0.22,0-0.3,0c-0.16,0-0.32,0-0.48,0c-0.16,0-0.32,0-0.48,0
		c-0.08,0-0.16-0.02-0.24-0.06c-0.08-0.04-0.16-0.06-0.24-0.06c-0.08,0-0.12-0.02-0.12-0.06c0-0.04-0.04-0.06-0.12-0.06
		c-1.29-0.24-2.56-0.52-3.8-0.85c-1.25-0.32-2.43-0.64-3.56-0.97c-1.21-0.4-2.37-0.82-3.5-1.27c-1.13-0.44-2.25-0.94-3.38-1.51
		c-1.21-0.48-2.29-1.03-3.26-1.63c-0.97-0.6-1.81-1.23-2.53-1.87c-0.81-0.64-1.53-1.35-2.17-2.11c-0.64-0.76-1.21-1.55-1.69-2.35
		l-0.12-0.12c-0.08-0.08-0.14-0.14-0.18-0.18c-0.04-0.04-0.06-0.1-0.06-0.18c0-0.08,0-0.16,0-0.24c0-0.08,0-0.16,0-0.24
		c0-0.08,0-0.16,0-0.24c0-0.08,0-0.16,0-0.24c0-0.16,0-0.3,0-0.42s0-0.22,0-0.3c-0.08-0.08-0.12-0.16-0.12-0.24
		c0-0.08,0-0.16,0-0.24c0-0.08,0-0.16,0-0.24c0-0.08,0-0.16,0-0.24c0-0.08,0-0.16,0-0.24c0-0.08,0-0.16,0-0.24c0-0.08,0-0.14,0-0.18
		c0-0.04,0-0.1,0-0.18c0-0.08,0-0.16,0-0.24c0-0.08,0-0.14,0-0.18c0-0.04,0-0.1,0-0.18c0-0.08,0-0.14,0-0.18c0-0.04,0-0.1,0-0.18
		c0-0.08,0-0.14,0-0.18c0-0.04,0-0.1,0-0.18c0-0.08,0-0.16,0-0.24c0-0.08,0.04-0.16,0.12-0.24c0-0.08,0-0.14,0-0.18
		c0-0.04,0-0.1,0-0.18c0-0.08,0-0.14,0-0.18c0-0.04,0-0.1,0-0.18c0-0.08,0-0.14,0-0.18c0-0.04,0-0.1,0-0.18c0-0.08,0-0.14,0-0.18
		c0-0.04,0-0.1,0-0.18l30.78-49.37c0.4-0.64,0.91-1.25,1.51-1.81c0.6-0.56,1.27-1.13,1.99-1.69c0.72-0.48,1.51-0.97,2.35-1.45
		c0.85-0.48,1.79-0.92,2.84-1.33c0.32-0.16,0.66-0.28,1.03-0.36c0.36-0.08,0.7-0.16,1.03-0.24c0.64-0.24,1.31-0.44,1.99-0.6
		c0.68-0.16,1.39-0.32,2.11-0.48c1.13-0.16,2.23-0.3,3.32-0.42c1.09-0.12,2.23-0.18,3.44-0.18l1.09-0.24
		C180.47,451.22,180.75,451.3,181.07,451.38z"/>
	<path class="st3" d="M267.5,461.64c0.08,0,0.18,0.02,0.3,0.06c0.12,0.04,0.22,0.1,0.3,0.18c0.16,0,0.34,0.02,0.54,0.06
		c0.2,0.04,0.42,0.1,0.66,0.18c0.16,0.08,0.32,0.14,0.48,0.18c0.16,0.04,0.32,0.06,0.48,0.06c0.16,0.08,0.32,0.14,0.48,0.18
		c0.16,0.04,0.28,0.1,0.36,0.18c0.16,0.08,0.3,0.16,0.42,0.24c0.12,0.08,0.26,0.16,0.42,0.24c0.16,0.08,0.3,0.16,0.42,0.24
		c0.12,0.08,0.26,0.16,0.42,0.24c0.16,0.08,0.3,0.16,0.42,0.24c0.12,0.08,0.26,0.12,0.42,0.12c0.08,0.08,0.2,0.16,0.36,0.24
		c0.16,0.08,0.28,0.16,0.36,0.24l0.12,0.12c0,0.08,0.04,0.12,0.12,0.12h0.12c0,0.08,0.02,0.12,0.06,0.12c0.04,0,0.1,0,0.18,0
		c0,0.08,0,0.16,0,0.24h0.12c0,0.08,0.02,0.12,0.06,0.12c0.04,0,0.1,0,0.18,0c0,0.08,0.04,0.14,0.12,0.18
		c0.08,0.04,0.16,0.06,0.24,0.06c0,0.08,0.04,0.14,0.12,0.18c0.08,0.04,0.16,0.06,0.24,0.06v11.95l2.29,1.57
		c0.08,0,0.12,0.02,0.12,0.06c0,0.04,0.04,0.1,0.12,0.18c0.08,0,0.16,0.02,0.24,0.06c0.08,0.04,0.16,0.06,0.24,0.06
		c0.16,0,0.34,0,0.54,0c0.2,0,0.38,0,0.54,0c0.08,0,0.14,0,0.18,0c0.04,0,0.1,0,0.18,0c0.08,0,0.16,0,0.24,0c0.16,0,0.32,0,0.48,0
		c0.08,0,0.16,0,0.24,0h0.12c0.08,0,0.14,0,0.18,0c0.04,0,0.1,0,0.18,0c0.08,0,0.16,0,0.24,0c0.08,0.08,0.18,0.12,0.3,0.12
		c0.12,0,0.26,0,0.42,0c0.16,0,0.34,0,0.54,0c0.2,0,0.38,0,0.54,0c0.16,0,0.28,0,0.36,0c0.16,0,0.32,0,0.48,0
		c0.08,0.08,0.16,0.12,0.24,0.12h0.12c0.08,0,0.14,0,0.18,0c0.04,0,0.1,0,0.18,0c0.08,0,0.16,0,0.24,0c0.08,0,0.18,0,0.3,0
		c0.12,0,0.26,0,0.42,0c0.16,0,0.34,0,0.54,0c0.2,0,0.38,0,0.54,0c0.08,0.08,0.18,0.12,0.3,0.12c0.12,0,0.26,0,0.42,0
		c0.16,0,0.34,0,0.54,0c0.2,0,0.38,0,0.54,0c0.24,0.08,0.52,0.14,0.85,0.18c0.32,0.04,0.64,0.06,0.97,0.06c0.16,0,0.32,0,0.48,0
		c0.16,0,0.32,0,0.48,0c0.16,0.08,0.32,0.12,0.48,0.12c0.16,0,0.32,0,0.48,0c0.08,0.08,0.16,0.16,0.24,0.24h0.12h0.12
		c0,0.08,0.04,0.12,0.12,0.12h0.12l0.12,0.12c0,0.08,0.04,0.12,0.12,0.12c0.16,0,0.28,0,0.36,0v0.12c0.16,0,0.28,0,0.36,0
		c0,0.08,0.04,0.14,0.12,0.18c0.08,0.04,0.16,0.06,0.24,0.06c0,0.08,0.04,0.14,0.12,0.18c0.08,0.04,0.16,0.06,0.24,0.06
		c0,0.08,0.04,0.12,0.12,0.12v0.12c0.08,0,0.16,0,0.24,0h0.12c0,0.08,0,0.16,0,0.24h0.12c0,0.08,0.04,0.12,0.12,0.12h0.12v0.84
		c0,0.08,0,0.2,0,0.36c0,0.08,0,0.16,0,0.24c0,0.08,0,0.16,0,0.24v0.12c0,0.08,0,0.14,0,0.18c0,0.04,0,0.1,0,0.18
		c-0.08,0.08-0.12,0.14-0.12,0.18c0,0.04,0,0.1,0,0.18c0,0.08-0.02,0.14-0.06,0.18c-0.04,0.04-0.06,0.1-0.06,0.18
		c0,0.08-0.02,0.14-0.06,0.18c-0.04,0.04-0.06,0.1-0.06,0.18l-0.12,0.24c-0.08,0.08-0.14,0.16-0.18,0.24
		c-0.04,0.08-0.06,0.16-0.06,0.24c0,0.08-0.02,0.14-0.06,0.18c-0.04,0.04-0.1,0.06-0.18,0.06c-0.08,0.08-0.16,0.16-0.24,0.24
		c-0.16,0.08-0.34,0.14-0.54,0.18c-0.2,0.04-0.38,0.1-0.54,0.18c-0.16,0.08-0.34,0.14-0.54,0.18c-0.2,0.04-0.38,0.06-0.54,0.06
		c-0.16,0.08-0.34,0.14-0.54,0.18c-0.2,0.04-0.38,0.06-0.54,0.06c-0.16,0.08-0.34,0.12-0.54,0.12c-0.2,0-0.38,0-0.54,0
		c-0.08,0-0.16,0.02-0.24,0.06c-0.08,0.04-0.16,0.06-0.24,0.06c-0.08,0.08-0.16,0.12-0.24,0.12c-0.08,0-0.16,0-0.24,0
		c-0.08,0-0.16,0-0.24,0c-0.08,0-0.16,0-0.24,0h-0.12h-0.12c-0.08,0-0.16,0-0.24,0c-0.08,0-0.16,0-0.24,0h-0.12h-0.12
		c-0.08,0-0.16,0-0.24,0c-0.08,0-0.16,0-0.24,0h-0.12h-0.12c-0.08,0-0.2,0-0.36,0c-0.08,0-0.16,0-0.24,0c-0.08,0-0.16,0-0.24,0
		c-0.16,0-0.3,0-0.42,0c-0.12,0-0.22,0-0.3,0c-0.08,0-0.2,0-0.36,0c-0.08,0-0.16,0-0.24,0c-0.08,0-0.12-0.04-0.12-0.12
		c-0.08,0-0.2,0-0.36,0c-0.08,0-0.2,0-0.36,0c-0.16,0-0.34,0-0.54,0c-0.2,0-0.38,0-0.54,0c-0.16,0-0.3,0-0.42,0
		c-0.12,0-0.22,0-0.3,0c-0.08,0-0.2,0-0.36,0c-0.08,0-0.16,0-0.24,0c-0.08,0-0.12-0.04-0.12-0.12c-0.08,0-0.2,0-0.36,0
		c-0.08,0-0.2,0-0.36,0c-0.16,0.08-0.34,0.14-0.54,0.18c-0.2,0.04-0.38,0.06-0.54,0.06c-0.16,0-0.32,0.02-0.48,0.06
		c-0.16,0.04-0.32,0.1-0.48,0.18c-0.16,0.08-0.34,0.14-0.54,0.18c-0.2,0.04-0.38,0.1-0.54,0.18c-0.08,0.08-0.16,0.14-0.24,0.18
		c-0.08,0.04-0.16,0.1-0.24,0.18c-0.08,0-0.12,0.02-0.12,0.06c0,0.04-0.04,0.06-0.12,0.06l-0.12,0.12c-0.08,0-0.16,0.04-0.24,0.12
		c0,0.08,0,0.16,0,0.24c0,0.08,0,0.16,0,0.24c-0.08,0.08-0.12,0.16-0.12,0.24v0.12c-0.08,0-0.16,0-0.24,0l-0.12,0.12
		c-0.08,0-0.14,0.02-0.18,0.06c-0.04,0.04-0.06,0.1-0.06,0.18c0,0.08,0,0.14,0,0.18c0,0.04,0,0.1,0,0.18
		c-0.08,0.08-0.12,0.14-0.12,0.18c0,0.04,0,0.1,0,0.18c0,0.08,0,0.16,0,0.24l0.36,0.24v24.99c0,0.08,0,0.16,0,0.24
		c0,0.08,0,0.16,0,0.24c0,0.08,0,0.14,0,0.18c0,0.04,0.04,0.06,0.12,0.06c0,0.08,0,0.16,0,0.24c0.08,0,0.16,0,0.24,0
		c0,0.08,0,0.16,0,0.24h0.12v0.12c0,0.08,0.02,0.14,0.06,0.18c0.04,0.04,0.1,0.1,0.18,0.18l0.12,0.12c0,0.08,0.02,0.14,0.06,0.18
		c0.04,0.04,0.1,0.1,0.18,0.18l0.12,0.12c0.08,0,0.14,0.02,0.18,0.06c0.04,0.04,0.1,0.06,0.18,0.06c0,0.08,0.02,0.14,0.06,0.18
		c0.04,0.04,0.1,0.06,0.18,0.06c0.08,0.08,0.16,0.12,0.24,0.12c0.08,0.08,0.16,0.12,0.24,0.12c0.32,0.08,0.66,0.18,1.03,0.3
		c0.36,0.12,0.7,0.26,1.03,0.42c0.4,0.08,0.78,0.16,1.15,0.24c0.36,0.08,0.7,0.16,1.03,0.24c0.4,0.08,0.78,0.14,1.15,0.18
		c0.36,0.04,0.7,0.06,1.03,0.06c0.4,0.08,0.78,0.12,1.15,0.12c0.36,0,0.74,0,1.15,0c0.08,0,0.16,0,0.24,0h0.12c0.08,0,0.16,0,0.24,0
		c0.16-0.08,0.28-0.16,0.36-0.24c0.08,0,0.16,0,0.24,0c0.08,0,0.16,0,0.24,0c0.08,0,0.14,0,0.18,0c0.04,0,0.1-0.04,0.18-0.12
		c0.08-0.08,0.16-0.12,0.24-0.12c0.08,0,0.16,0,0.24,0c0.08,0,0.16,0,0.24,0c0.08,0,0.14,0,0.18,0c0.04,0,0.1-0.04,0.18-0.12
		c0.08-0.08,0.16-0.12,0.24-0.12h0.12c0.08,0,0.16,0,0.24,0h0.12c0.08,0,0.16,0,0.24,0h0.12h0.12H292c0.16,0,0.28-0.04,0.36-0.12
		h0.12c0.08,0,0.16,0,0.24,0h0.12c0.08,0,0.16,0,0.24,0h0.12l0.12,0.12h0.12c0.16,0,0.28,0,0.36,0h0.12c0.08,0,0.16,0,0.24,0h0.12
		c0.08,0,0.16,0,0.24,0h0.12c0.08,0,0.12,0.02,0.12,0.06c0,0.04,0.04,0.06,0.12,0.06c0.08,0,0.16,0.02,0.24,0.06
		c0.08,0.04,0.16,0.06,0.24,0.06h0.12h0.12h0.12c0,0.08,0.04,0.12,0.12,0.12c0.08,0,0.16,0,0.24,0c0.08,0,0.14,0.02,0.18,0.06
		c0.04,0.04,0.1,0.06,0.18,0.06c0,0.08,0.02,0.12,0.06,0.12c0.04,0,0.1,0,0.18,0c0.08,0,0.16,0,0.24,0
		c0.08,0.08,0.16,0.12,0.24,0.12v0.12c0.08,0,0.16,0,0.24,0c0,0.08,0,0.16,0,0.24c0,0.08,0,0.16,0,0.24h0.12c0,0.08,0,0.16,0,0.24
		c0,0.08,0,0.16,0,0.24c0.08,0,0.16,0,0.24,0c0,0.08,0,0.16,0,0.24v0.12h0.12v0.12c0,0.08,0,0.16,0,0.24c0,0.08,0.02,0.12,0.06,0.12
		c0.04,0,0.1,0,0.18,0c0,0.08,0,0.16,0,0.24v0.12c0,0.08,0,0.16,0,0.24c0,0.08,0.04,0.12,0.12,0.12c0,0.08,0,0.16,0,0.24v0.12
		c-0.08,0.08-0.12,0.16-0.12,0.24c0,0.08,0,0.16,0,0.24v0.12v0.12c-0.08,0.08-0.16,0.16-0.24,0.24c0,0.08,0,0.16,0,0.24v0.12
		c-0.08,0.08-0.2,0.14-0.36,0.18c-0.16,0.04-0.28,0.1-0.36,0.18c-0.16,0.08-0.3,0.14-0.42,0.18c-0.12,0.04-0.26,0.1-0.42,0.18
		c-0.16,0.08-0.32,0.14-0.48,0.18c-0.16,0.04-0.32,0.06-0.48,0.06c-0.16,0.08-0.3,0.14-0.42,0.18c-0.12,0.04-0.22,0.1-0.3,0.18
		c-0.24,0.08-0.46,0.14-0.66,0.18c-0.2,0.04-0.38,0.1-0.54,0.18c-0.08,0-0.18,0.02-0.3,0.06c-0.12,0.04-0.22,0.06-0.3,0.06
		c-0.08,0.08-0.2,0.14-0.36,0.18c-0.16,0.04-0.28,0.06-0.36,0.06c-0.16,0.08-0.3,0.14-0.42,0.18c-0.12,0.04-0.26,0.06-0.42,0.06
		c-0.65,0.16-1.27,0.3-1.87,0.42c-0.6,0.12-1.19,0.26-1.75,0.42c-0.24,0.08-0.52,0.14-0.85,0.18c-0.32,0.04-0.6,0.1-0.84,0.18
		c-0.32,0.08-0.65,0.14-0.97,0.18c-0.32,0.04-0.6,0.06-0.85,0.06c-0.08,0-0.2,0-0.36,0c-0.08,0-0.16,0-0.24,0c-0.08,0-0.16,0-0.24,0
		c-0.16,0-0.3-0.02-0.42-0.06c-0.12-0.04-0.22-0.1-0.3-0.18c-0.16,0-0.34,0-0.54,0c-0.2,0-0.38,0-0.54,0c-0.16,0-0.3-0.02-0.42-0.06
		c-0.12-0.04-0.22-0.1-0.3-0.18c-0.32-0.08-0.65-0.14-0.97-0.18c-0.32-0.04-0.6-0.1-0.85-0.18c-0.16,0-0.3-0.02-0.42-0.06
		c-0.12-0.04-0.26-0.1-0.42-0.18c-0.16,0-0.3-0.02-0.42-0.06c-0.12-0.04-0.26-0.06-0.42-0.06c-1.13-0.24-2.23-0.5-3.32-0.78
		c-1.09-0.28-2.19-0.58-3.32-0.91c-1.05-0.4-2.09-0.8-3.14-1.21c-1.05-0.4-2.05-0.85-3.02-1.33c-1.05-0.4-1.95-0.88-2.72-1.45
		c-0.77-0.56-1.43-1.17-1.99-1.81c-0.56-0.64-1.01-1.33-1.33-2.05c-0.32-0.72-0.56-1.49-0.72-2.29v-49.85
		c0.08-0.16,0.16-0.3,0.24-0.42c0.08-0.12,0.2-0.26,0.36-0.42c0.08-0.08,0.18-0.2,0.3-0.36c0.12-0.16,0.26-0.28,0.42-0.36
		c0.16-0.16,0.3-0.28,0.42-0.36c0.12-0.08,0.26-0.2,0.42-0.36c0.16-0.08,0.34-0.18,0.54-0.3c0.2-0.12,0.38-0.22,0.54-0.3
		c0.4-0.16,0.78-0.34,1.15-0.54c0.36-0.2,0.78-0.34,1.27-0.42c0.4-0.16,0.84-0.26,1.33-0.3c0.48-0.04,1-0.1,1.57-0.18v-0.24H267.5z"
		/>
	<path class="st3" d="M405.52,451.56c0.04,0.04,0.1,0.1,0.18,0.18h0.12c0.08,0,0.16,0,0.24,0h0.12c0.08,0,0.16,0,0.24,0h0.12
		l0.12,0.12h0.12c0.16,0,0.28,0,0.36,0c0.16,0.08,0.36,0.14,0.6,0.18c0.24,0.04,0.52,0.14,0.85,0.3c0.16,0.08,0.36,0.16,0.6,0.24
		c0.24,0.08,0.52,0.16,0.84,0.24c0.08,0.08,0.18,0.14,0.3,0.18c0.12,0.04,0.22,0.1,0.3,0.18c0.08,0.08,0.18,0.14,0.3,0.18
		c0.12,0.04,0.22,0.1,0.3,0.18c0.16,0.08,0.34,0.18,0.54,0.3c0.2,0.12,0.38,0.26,0.54,0.42v69.89c0,0.08,0,0.18,0,0.3
		c0,0.12,0,0.22,0,0.3c-0.08,0.08-0.12,0.16-0.12,0.24c0,0.08,0,0.16,0,0.24c0,0.08-0.02,0.18-0.06,0.3
		c-0.04,0.12-0.1,0.22-0.18,0.3c-0.08,0.08-0.12,0.16-0.12,0.24c-0.08,0.08-0.14,0.14-0.18,0.18c-0.04,0.04-0.06,0.1-0.06,0.18
		c-0.08,0.08-0.14,0.14-0.18,0.18c-0.04,0.04-0.1,0.1-0.18,0.18c0,0.08-0.02,0.14-0.06,0.18c-0.04,0.04-0.1,0.1-0.18,0.18
		c-0.08,0.08-0.14,0.14-0.18,0.18c-0.04,0.04-0.06,0.1-0.06,0.18v0.12c-0.08,0.08-0.16,0.12-0.24,0.12v0.12l-0.12,0.12
		c-0.32,0.08-0.6,0.18-0.84,0.3c-0.24,0.12-0.44,0.22-0.6,0.3c-0.08,0.08-0.22,0.14-0.42,0.18c-0.2,0.04-0.38,0.1-0.54,0.18
		c-0.08,0-0.16,0.02-0.24,0.06c-0.08,0.04-0.16,0.06-0.24,0.06c-0.16,0-0.3,0.02-0.42,0.06c-0.12,0.04-0.26,0.06-0.42,0.06
		c-0.16,0.08-0.3,0.12-0.42,0.12c-0.12,0-0.26,0-0.42,0c-0.08,0-0.2,0-0.36,0c-0.16,0-0.28,0-0.36,0c-0.16,0-0.3,0-0.42,0
		c-0.12,0-0.26,0-0.42,0c-0.08,0-0.2,0-0.36,0c-0.08,0-0.2,0-0.36,0h-0.12h-0.12h-0.12c-0.08,0-0.16,0-0.24,0h-0.12
		c-0.08,0-0.16,0-0.24,0h-3.38c-0.48-0.08-0.93-0.18-1.33-0.3c-0.4-0.12-0.8-0.26-1.21-0.42c-0.32-0.16-0.66-0.34-1.03-0.54
		c-0.36-0.2-0.71-0.42-1.03-0.66c-0.32-0.24-0.6-0.48-0.84-0.72c-0.24-0.24-0.44-0.52-0.6-0.85c-0.16-0.24-0.32-0.54-0.48-0.9
		c-0.16-0.36-0.24-0.7-0.24-1.03l-0.72-26.31c-0.32-0.48-0.66-0.97-1.03-1.45c-0.36-0.48-0.74-1-1.15-1.57
		c-0.4-0.48-0.83-0.97-1.27-1.45c-0.44-0.48-0.91-0.97-1.39-1.45c-1.05-0.97-2.17-1.91-3.38-2.84c-1.21-0.92-2.5-1.83-3.86-2.72
		c-0.48-0.32-0.95-0.6-1.39-0.85c-0.44-0.24-0.91-0.52-1.39-0.84c-0.89-0.48-1.79-1.01-2.72-1.57c-0.93-0.56-1.87-1.09-2.84-1.57
		c-0.72-0.4-1.47-0.78-2.23-1.15c-0.77-0.36-1.51-0.74-2.23-1.15c-0.72-0.32-1.47-0.68-2.23-1.09c-0.77-0.4-1.51-0.76-2.23-1.09
		c-0.56-0.24-1.11-0.48-1.63-0.72c-0.52-0.24-1.07-0.48-1.63-0.72c-0.56-0.24-1.11-0.48-1.63-0.72c-0.52-0.24-1.07-0.48-1.63-0.72
		c-0.56-0.16-1.11-0.34-1.63-0.54c-0.52-0.2-1.07-0.42-1.63-0.66c-0.24-0.16-0.5-0.28-0.78-0.36c-0.28-0.08-0.54-0.2-0.78-0.36
		c-0.24-0.08-0.48-0.18-0.72-0.3c-0.24-0.12-0.48-0.22-0.72-0.3l-0.97-0.24c-0.08,0.08-0.12,0.16-0.12,0.24
		c-0.08,0-0.16,0.04-0.24,0.12h-0.12c-0.08,0-0.2,0-0.36,0h-0.12h-0.12h-0.12c-0.08,0.08-0.2,0.12-0.36,0.12c-0.08,0-0.2,0-0.36,0
		c-0.08,0.08-0.2,0.16-0.36,0.24l-0.12,0.12h-0.12l-0.12,0.12c-0.08,0-0.16,0.04-0.24,0.12v0.12l-0.12,0.12
		c-0.08,0.08-0.16,0.16-0.24,0.24c-0.08,0.08-0.14,0.14-0.18,0.18c-0.04,0.04-0.1,0.06-0.18,0.06c-0.08,0.08-0.12,0.16-0.12,0.24
		c-0.08,0-0.14,0.02-0.18,0.06c-0.04,0.04-0.06,0.1-0.06,0.18v0.12c-0.08,0.08-0.12,0.16-0.12,0.24v0.12
		c-0.08,0.08-0.16,0.12-0.24,0.12v51.42c-0.16,0.32-0.36,0.6-0.6,0.85c-0.24,0.24-0.52,0.44-0.85,0.6c-0.08,0.08-0.2,0.18-0.36,0.3
		c-0.16,0.12-0.28,0.22-0.36,0.3c-0.16,0.08-0.3,0.16-0.42,0.24c-0.12,0.08-0.26,0.16-0.42,0.24c-0.16,0.08-0.34,0.16-0.54,0.24
		c-0.2,0.08-0.38,0.16-0.54,0.24c-0.16,0.08-0.32,0.16-0.48,0.24c-0.16,0.08-0.32,0.12-0.48,0.12c-0.16,0.08-0.34,0.14-0.54,0.18
		c-0.2,0.04-0.38,0.06-0.54,0.06c-0.16,0.08-0.34,0.14-0.54,0.18c-0.2,0.04-0.38,0.06-0.54,0.06c-0.08,0-0.16,0-0.24,0
		c-0.08,0-0.16,0-0.24,0h-0.12h-0.12c-0.08,0-0.16,0-0.24,0c-0.08,0-0.16,0-0.24,0h-0.12h-0.12c-0.08,0-0.16,0-0.24,0
		c-0.08,0-0.16,0-0.24,0c-0.08,0-0.16,0-0.24,0c-0.08,0-0.14,0-0.18,0c-0.04,0-0.1,0-0.18,0c-0.08,0-0.2,0-0.36,0
		c-0.08,0-0.16,0-0.24,0c-0.08,0-0.16,0-0.24,0c-0.16,0-0.3,0-0.42,0c-0.12,0-0.22,0-0.3,0c-0.16,0-0.3,0-0.42,0
		c-0.12,0-0.22,0-0.3,0c-0.16,0-0.3,0-0.42,0c-0.12,0-0.22,0-0.3,0c-0.32-0.16-0.58-0.3-0.78-0.42c-0.2-0.12-0.38-0.26-0.54-0.42
		c-0.16-0.16-0.34-0.32-0.54-0.48c-0.2-0.16-0.38-0.32-0.54-0.48c-0.16-0.16-0.34-0.32-0.54-0.48c-0.2-0.16-0.38-0.32-0.54-0.48
		c-0.08-0.16-0.16-0.3-0.24-0.42c-0.08-0.12-0.16-0.22-0.24-0.3c-0.08-0.08-0.12-0.14-0.12-0.18c0-0.04-0.04-0.1-0.12-0.18V458.5
		c0.16-0.24,0.32-0.5,0.48-0.78c0.16-0.28,0.36-0.58,0.6-0.91c0.16-0.16,0.32-0.34,0.48-0.54c0.16-0.2,0.32-0.38,0.48-0.54
		c0.08-0.08,0.16-0.18,0.24-0.3c0.08-0.12,0.16-0.22,0.24-0.3c0.08-0.08,0.18-0.16,0.3-0.24c0.12-0.08,0.22-0.16,0.3-0.24
		c0-0.08,0.04-0.14,0.12-0.18c0.08-0.04,0.12-0.1,0.12-0.18c0.16-0.08,0.32-0.2,0.48-0.36c0.16-0.16,0.32-0.28,0.48-0.36
		c0.16-0.16,0.32-0.28,0.48-0.36c0.16-0.08,0.32-0.2,0.48-0.36c0.24-0.08,0.44-0.18,0.6-0.3c0.16-0.12,0.36-0.22,0.6-0.3l2.78-0.24
		c0.08,0.08,0.16,0.12,0.24,0.12c0.08,0.08,0.16,0.12,0.24,0.12c0.24,0,0.44,0,0.6,0c0,0.08,0.04,0.12,0.12,0.12
		c0.08,0,0.16,0,0.24,0c0.08,0,0.16,0,0.24,0c0.08,0,0.16,0,0.24,0c0.08,0,0.14,0,0.18,0c0.04,0,0.1,0,0.18,0c0.08,0,0.16,0,0.24,0
		c0.08,0,0.16,0,0.24,0c0.08,0,0.16,0,0.24,0c0.08,0,0.14,0.02,0.18,0.06c0.04,0.04,0.1,0.06,0.18,0.06c0.08,0,0.16,0,0.24,0
		c0.08,0,0.16,0,0.24,0c0.08,0,0.16,0,0.24,0c0.08,0,0.12,0.02,0.12,0.06c0,0.04,0.04,0.06,0.12,0.06c0.08,0,0.16,0.02,0.24,0.06
		c0.08,0.04,0.16,0.06,0.24,0.06c0.16,0,0.34,0,0.54,0c0.2,0,0.38,0,0.54,0c0.08,0,0.12,0.02,0.12,0.06c0,0.04,0.04,0.06,0.12,0.06
		c0.08,0,0.16,0.02,0.24,0.06c0.08,0.04,0.16,0.06,0.24,0.06c0.08,0,0.16,0,0.24,0c0.08,0,0.2,0,0.36,0
		c0.08,0.08,0.16,0.12,0.24,0.12c0.08,0,0.16,0,0.24,0c0.16,0,0.3,0.02,0.42,0.06c0.12,0.04,0.26,0.06,0.42,0.06
		c0.16,0.08,0.3,0.14,0.42,0.18c0.12,0.04,0.26,0.06,0.42,0.06c0.16,0,0.3,0.02,0.42,0.06c0.12,0.04,0.26,0.06,0.42,0.06
		c0.08,0.08,0.2,0.14,0.36,0.18c0.16,0.04,0.28,0.06,0.36,0.06c0.97,0.4,1.97,0.81,3.02,1.21c1.05,0.4,2.09,0.81,3.14,1.21
		c0.97,0.4,1.97,0.8,3.02,1.21c1.05,0.4,2.05,0.81,3.02,1.21c1.37,0.56,2.67,1.13,3.92,1.69c1.25,0.56,2.51,1.13,3.8,1.69
		c0.64,0.32,1.29,0.62,1.93,0.91c0.64,0.28,1.29,0.59,1.93,0.91c0.64,0.32,1.27,0.62,1.87,0.91c0.6,0.28,1.23,0.58,1.87,0.91
		c1.29,0.64,2.55,1.29,3.8,1.93c1.25,0.65,2.47,1.29,3.68,1.93c0.88,0.48,1.77,0.99,2.66,1.51c0.88,0.52,1.77,1.03,2.66,1.51
		c0.88,0.56,1.77,1.11,2.66,1.63c0.88,0.52,1.77,1.03,2.66,1.51l0.97-0.24v0.12c0.16,0,0.28,0,0.36,0c0.16-0.08,0.28-0.16,0.36-0.24
		c0.16-0.08,0.28-0.16,0.36-0.24c0.16-0.08,0.28-0.16,0.36-0.24v-17.62c0-0.16,0-0.32,0-0.48c0-0.16,0.04-0.36,0.12-0.6
		c0-0.16,0.04-0.32,0.12-0.48c0.08-0.16,0.16-0.32,0.24-0.48c0.16-0.32,0.42-0.62,0.78-0.91c0.36-0.28,0.78-0.58,1.27-0.91
		c0.4-0.24,0.86-0.48,1.39-0.72c0.52-0.24,1.07-0.4,1.63-0.48c0.56-0.16,1.13-0.28,1.69-0.36c0.56-0.08,1.17-0.12,1.81-0.12
		l0.85-0.24C405.46,451.46,405.48,451.52,405.52,451.56z"/>
	<path class="st3" d="M450.6,479.26c0.24,0,0.46,0.04,0.66,0.12c0.2,0.08,0.38,0.12,0.54,0.12c0.4,0.08,0.82,0.16,1.27,0.24
		c0.44,0.08,0.82,0.16,1.15,0.24c0.24,0.08,0.5,0.16,0.78,0.24c0.28,0.08,0.54,0.16,0.79,0.24c0.24,0.08,0.48,0.16,0.72,0.24
		c0.24,0.08,0.48,0.2,0.72,0.36c0.48,0.32,0.95,0.62,1.39,0.91c0.44,0.28,0.82,0.58,1.15,0.91c0.4,0.32,0.74,0.66,1.03,1.03
		c0.28,0.36,0.54,0.75,0.78,1.15v29.45c0,0.08,0,0.2,0,0.36c0,0.08,0.02,0.14,0.06,0.18c0.04,0.04,0.1,0.06,0.18,0.06
		c0,0.08,0,0.16,0,0.24v0.12c0,0.08,0,0.14,0,0.18c0,0.04,0,0.1,0,0.18c0,0.08,0.04,0.14,0.12,0.18c0.08,0.04,0.16,0.1,0.24,0.18
		c0.16,0.32,0.34,0.65,0.54,0.97c0.2,0.32,0.42,0.65,0.66,0.97c0.32,0.32,0.66,0.6,1.03,0.85c0.36,0.24,0.7,0.48,1.03,0.72
		c0.4,0.32,0.78,0.56,1.15,0.72c0.36,0.16,0.74,0.32,1.15,0.48c0.4,0.08,0.85,0.16,1.33,0.24c0.48,0.08,1.01,0.12,1.57,0.12
		c0.08,0,0.16,0,0.24,0H471c0.08,0,0.16,0,0.24,0l0.12-0.12h0.12h0.12h0.12c0.08,0,0.16,0,0.24,0h0.12c0.08,0,0.16-0.04,0.24-0.12
		h0.12c0.24-0.08,0.46-0.14,0.66-0.18c0.2-0.04,0.42-0.06,0.66-0.06c0.4-0.16,0.82-0.3,1.27-0.42c0.44-0.12,0.91-0.22,1.39-0.3
		c0.32-0.08,0.64-0.18,0.97-0.3c0.32-0.12,0.64-0.22,0.97-0.3c0.32-0.16,0.64-0.3,0.97-0.42c0.32-0.12,0.64-0.22,0.97-0.3
		c0.24-0.16,0.5-0.3,0.78-0.42c0.28-0.12,0.58-0.22,0.91-0.3c0.32-0.16,0.62-0.3,0.91-0.42c0.28-0.12,0.54-0.26,0.78-0.42
		c0.4-0.16,0.8-0.34,1.21-0.54c0.4-0.2,0.8-0.38,1.21-0.54c0.16-0.08,0.36-0.18,0.6-0.3c0.24-0.12,0.44-0.22,0.6-0.3
		c0.08,0,0.12-0.04,0.12-0.12l0.12-0.12c0.16-0.08,0.28-0.16,0.36-0.24c0-0.08,0-0.16,0-0.24c0.16-0.08,0.28-0.16,0.36-0.24
		c0-0.08,0.04-0.16,0.12-0.24c0.08-0.08,0.16-0.16,0.24-0.24c0-0.08,0-0.14,0-0.18c0-0.04,0.04-0.1,0.12-0.18
		c0.08-0.08,0.16-0.16,0.24-0.24c0-0.08,0.04-0.16,0.12-0.24c0-0.08,0-0.16,0-0.24c0-0.08,0.02-0.14,0.06-0.18
		c0.04-0.04,0.1-0.06,0.18-0.06c0-0.08,0.04-0.16,0.12-0.24c0.08-0.08,0.12-0.16,0.12-0.24c0.08-0.08,0.12-0.16,0.12-0.24
		c0-0.08,0-0.14,0-0.18c0-0.04,0.04-0.1,0.12-0.18c0.08-0.08,0.16-0.16,0.24-0.24l1.93-27.64c0.08-0.16,0.18-0.3,0.3-0.42
		c0.12-0.12,0.26-0.26,0.42-0.42c0.16-0.08,0.32-0.2,0.48-0.36c0.16-0.16,0.32-0.28,0.48-0.36c0.4-0.24,0.79-0.46,1.15-0.66
		c0.36-0.2,0.74-0.38,1.15-0.54c0.24-0.08,0.48-0.16,0.72-0.24c0.24-0.08,0.48-0.16,0.72-0.24c0.16-0.08,0.36-0.14,0.6-0.18
		c0.24-0.04,0.48-0.1,0.72-0.18c0.4-0.08,0.86-0.14,1.39-0.18c0.52-0.04,1.07-0.06,1.63-0.06h0.12h0.12c0.16,0,0.28,0,0.36,0
		c0,0.08,0.04,0.12,0.12,0.12c0.08,0,0.16,0,0.24,0h0.12c0.08,0,0.14,0,0.18,0c0.04,0,0.1,0,0.18,0c0.08,0,0.16,0,0.24,0
		c0.08,0,0.16,0,0.24,0c0.08,0,0.16,0,0.24,0c0.08,0,0.14,0.02,0.18,0.06c0.04,0.04,0.1,0.06,0.18,0.06c0,0.08,0.02,0.12,0.06,0.12
		c0.04,0,0.1,0,0.18,0c0.08,0,0.16,0,0.24,0c0.08,0,0.16,0,0.24,0h0.12h0.12c0.16,0,0.28,0,0.36,0c0,0.08,0.04,0.12,0.12,0.12
		c0.08,0,0.16,0,0.24,0h0.12c0,0.08,0,0.16,0,0.24h0.12c0,0.08,0.04,0.12,0.12,0.12h0.12c0,0.08,0.02,0.14,0.06,0.18
		c0.04,0.04,0.1,0.06,0.18,0.06c0.16,0,0.28,0,0.36,0c0.08,0.08,0.16,0.16,0.24,0.24c0.08,0,0.14,0.02,0.18,0.06
		c0.04,0.04,0.06,0.1,0.06,0.18c0.08,0.08,0.14,0.14,0.18,0.18c0.04,0.04,0.1,0.06,0.18,0.06c0,0.08,0.02,0.14,0.06,0.18
		c0.04,0.04,0.1,0.06,0.18,0.06c0,0.08,0.02,0.14,0.06,0.18c0.04,0.04,0.1,0.06,0.18,0.06c0.08,0.08,0.16,0.16,0.24,0.24
		c0.08,0.08,0.14,0.14,0.18,0.18c0.04,0.04,0.1,0.06,0.18,0.06c0,0.08,0.02,0.14,0.06,0.18c0.04,0.04,0.1,0.06,0.18,0.06
		c0,0.08,0,0.16,0,0.24c0,0.08,0.04,0.12,0.12,0.12c0.08,0,0.16,0,0.24,0c0,0.08,0,0.16,0,0.24c0,0.08,0.04,0.14,0.12,0.18
		c0.08,0.04,0.16,0.06,0.24,0.06c0,0.08,0.04,0.12,0.12,0.12c0,0.08,0,0.16,0,0.24c0.08,0.16,0.16,0.24,0.24,0.24l0.12,0.12v40.19
		c-0.16,0.32-0.36,0.62-0.6,0.91c-0.24,0.28-0.52,0.54-0.84,0.78c-0.08,0.08-0.2,0.18-0.36,0.3c-0.16,0.12-0.28,0.26-0.36,0.42
		c-0.16,0.08-0.3,0.18-0.42,0.3c-0.12,0.12-0.26,0.22-0.42,0.3c-0.16,0.08-0.34,0.16-0.54,0.24c-0.2,0.08-0.38,0.16-0.54,0.24
		c-0.16,0.08-0.32,0.16-0.48,0.24c-0.16,0.08-0.32,0.12-0.48,0.12c-0.16,0.08-0.34,0.14-0.54,0.18c-0.2,0.04-0.38,0.06-0.54,0.06
		c-0.16,0.08-0.34,0.12-0.54,0.12c-0.2,0-0.38,0-0.54,0c-0.08,0.08-0.16,0.12-0.24,0.12c-0.08,0.08-0.16,0.12-0.24,0.12
		c-0.08,0-0.16,0-0.24,0c-0.08,0-0.14,0-0.18,0c-0.04,0-0.1,0-0.18,0c-0.08,0-0.16,0-0.24,0c-0.08,0-0.16,0-0.24,0
		c-0.08,0-0.16,0-0.24,0c-0.08,0-0.14,0-0.18,0c-0.04,0-0.1,0-0.18,0c-0.08,0-0.16,0-0.24,0c-0.08,0-0.16,0-0.24,0
		c-0.08,0-0.2,0-0.36,0c-0.16,0-0.36,0-0.6,0c-0.08,0-0.16-0.04-0.24-0.12c-0.08,0-0.16,0-0.24,0c-0.16,0-0.34,0-0.54,0
		c-0.2,0-0.38-0.04-0.54-0.12c-0.16,0-0.3-0.02-0.42-0.06c-0.12-0.04-0.22-0.1-0.3-0.18c-0.32-0.08-0.66-0.18-1.03-0.3
		c-0.36-0.12-0.74-0.22-1.15-0.3c-0.32-0.16-0.66-0.3-1.03-0.42c-0.36-0.12-0.75-0.26-1.15-0.42c-0.32-0.16-0.66-0.32-1.03-0.48
		c-0.36-0.16-0.71-0.32-1.03-0.48c-0.08-0.08-0.2-0.16-0.36-0.24c-0.16-0.08-0.28-0.2-0.36-0.36c-0.16-0.08-0.3-0.16-0.42-0.24
		c-0.12-0.08-0.26-0.16-0.42-0.24l-21.97,3.5l-0.12,0.12c-0.08,0-0.16,0.04-0.24,0.12l-0.12,0.12c-0.08,0-0.16,0-0.24,0h-0.12
		c-0.08,0-0.2,0-0.36,0c-0.08,0-0.2,0-0.36,0c-0.08,0-0.2,0-0.36,0h-0.12h-0.12l-0.12,0.12c-0.08,0-0.16,0-0.24,0h-0.12
		c-0.08,0-0.2,0-0.36,0c-0.08,0-0.2,0-0.36,0c-1.05,0-2.05-0.04-3.02-0.12c-0.97-0.08-1.89-0.24-2.78-0.48
		c-1.05-0.16-2.03-0.4-2.96-0.72c-0.93-0.32-1.83-0.68-2.72-1.09c-0.89-0.4-1.73-0.85-2.53-1.33c-0.81-0.48-1.57-0.97-2.29-1.45
		c-0.72-0.48-1.43-0.98-2.11-1.51c-0.68-0.52-1.31-1.07-1.87-1.63c-0.16-0.32-0.32-0.64-0.48-0.97c-0.16-0.32-0.32-0.64-0.48-0.97
		c-0.08-0.16-0.16-0.32-0.24-0.48c-0.08-0.16-0.12-0.36-0.12-0.6c-0.08,0-0.12-0.08-0.12-0.24c-0.08-0.16-0.12-0.3-0.12-0.42
		c0-0.12-0.04-0.22-0.12-0.3c-0.08-0.24-0.16-0.46-0.24-0.66c-0.08-0.2-0.16-0.38-0.24-0.54c-0.08-0.16-0.12-0.3-0.12-0.42
		c0-0.12-0.04-0.22-0.12-0.3c-0.08-0.32-0.12-0.64-0.12-0.97c0-0.32,0-0.64,0-0.97v-28.97c0.08-0.16,0.2-0.36,0.36-0.6
		c0.16-0.24,0.32-0.48,0.48-0.72c0.16-0.24,0.42-0.48,0.78-0.72c0.36-0.24,0.7-0.48,1.03-0.72c0.4-0.24,0.78-0.46,1.15-0.66
		c0.36-0.2,0.78-0.34,1.27-0.42c0.4-0.16,0.8-0.28,1.21-0.36c0.4-0.08,0.85-0.16,1.33-0.24v-0.24H450.6z"/>
	<path class="st3" d="M627.13,479.75c1.09,0.24,2.15,0.56,3.2,0.97c0.48,0.16,0.99,0.34,1.51,0.54c0.52,0.2,1.03,0.42,1.51,0.66
		c0.48,0.24,0.99,0.48,1.51,0.72c0.52,0.24,1.03,0.48,1.51,0.72c0.88,0.56,1.71,1.13,2.47,1.69c0.76,0.56,1.51,1.17,2.23,1.81
		c0.72,0.56,1.37,1.19,1.93,1.87c0.56,0.68,1.04,1.35,1.45,1.99c0,0.08,0,0.16,0,0.24c0,0.08,0.02,0.12,0.06,0.12
		c0.04,0,0.1,0,0.18,0c0,0.08,0,0.16,0,0.24v0.12c0,0.08,0,0.16,0,0.24h0.12c0,0.08,0,0.16,0,0.24v0.12c0,0.08,0,0.14,0,0.18
		c0,0.04,0,0.1,0,0.18c0,0.08,0,0.14,0,0.18c0,0.04,0,0.1,0,0.18c0,0.08,0,0.16,0,0.24c0.08,0,0.16,0,0.24,0c0,0.08,0,0.16,0,0.24
		h0.12v0.12v30.18c-0.16,0.48-0.34,0.91-0.54,1.27c-0.2,0.36-0.42,0.71-0.66,1.03c-0.32,0.32-0.69,0.62-1.09,0.91
		c-0.4,0.28-0.85,0.54-1.33,0.78c-0.4,0.24-0.84,0.44-1.33,0.6c-0.48,0.16-1.01,0.32-1.57,0.48c-0.24,0.08-0.48,0.14-0.72,0.18
		c-0.24,0.04-0.48,0.1-0.72,0.18c-0.24,0-0.51,0.02-0.79,0.06c-0.28,0.04-0.54,0.06-0.79,0.06c-0.08,0-0.2,0-0.36,0
		c-0.08,0-0.2,0-0.36,0c-0.08,0-0.2,0-0.36,0h-0.12h-0.12h-0.12c-0.08,0-0.16,0-0.24,0h-0.12c-0.08,0-0.2,0-0.36,0
		c-0.08,0-0.2,0-0.36,0c-0.08,0-0.2,0-0.36,0c-0.08,0-0.14,0-0.18,0c-0.04,0-0.06-0.04-0.06-0.12h-0.12c-0.08,0-0.16,0-0.24,0h-0.12
		c-0.08,0-0.12-0.04-0.12-0.12h-0.12c-0.08,0-0.16,0-0.24,0c-0.08,0-0.16,0-0.24,0c-0.16-0.08-0.32-0.14-0.48-0.18
		c-0.16-0.04-0.32-0.06-0.48-0.06c-0.16-0.08-0.34-0.14-0.54-0.18c-0.2-0.04-0.38-0.1-0.54-0.18c-0.16-0.08-0.34-0.16-0.54-0.24
		c-0.2-0.08-0.38-0.16-0.54-0.24c-0.16-0.08-0.32-0.16-0.48-0.24c-0.16-0.08-0.28-0.16-0.36-0.24c-0.08-0.08-0.16-0.14-0.24-0.18
		c-0.08-0.04-0.12-0.1-0.12-0.18c-0.08-0.08-0.16-0.16-0.24-0.24c-0.08-0.08-0.12-0.16-0.12-0.24c-0.08-0.08-0.16-0.16-0.24-0.24
		c-0.08-0.08-0.12-0.16-0.12-0.24c-0.08-0.08-0.14-0.16-0.18-0.24c-0.04-0.08-0.06-0.16-0.06-0.24l-0.12-0.12
		c-0.08-0.08-0.16-0.16-0.24-0.24c0-0.08,0-0.16,0-0.24c0-0.08,0-0.16,0-0.24v-0.12c-0.08,0-0.12-0.04-0.12-0.12
		c0-0.08,0-0.16,0-0.24c-0.08,0-0.14,0-0.18,0c-0.04,0-0.06-0.04-0.06-0.12c0-0.08,0-0.16,0-0.24l-1.09-32.23
		c-0.16-0.32-0.34-0.62-0.54-0.91c-0.2-0.28-0.38-0.54-0.54-0.78c-0.24-0.24-0.5-0.48-0.79-0.72c-0.28-0.24-0.62-0.44-1.03-0.6
		c-0.32-0.16-0.66-0.3-1.03-0.42c-0.36-0.12-0.75-0.22-1.15-0.3c-0.16,0-0.34-0.02-0.54-0.06c-0.2-0.04-0.38-0.06-0.54-0.06
		c-0.24-0.08-0.47-0.12-0.67-0.12c-0.2,0-0.38,0-0.54,0c-0.08,0-0.2,0-0.36,0c-0.08,0-0.2,0-0.36,0c-0.08,0.08-0.2,0.12-0.36,0.12
		c-0.08,0-0.2,0-0.36,0c-0.08,0-0.2,0-0.36,0c-0.08,0-0.16,0-0.24,0l-0.12,0.12c-0.08,0-0.16,0-0.24,0h-0.12c-0.08,0-0.16,0-0.24,0
		c-0.24,0-0.46,0.04-0.66,0.12c-0.2,0.08-0.38,0.12-0.54,0.12c-0.08,0.08-0.18,0.12-0.3,0.12c-0.12,0-0.22,0.04-0.3,0.12
		c-0.16,0.08-0.32,0.14-0.48,0.18c-0.16,0.04-0.32,0.06-0.48,0.06c0,0.08-0.08,0.12-0.24,0.12c-0.08,0.08-0.18,0.12-0.3,0.12
		c-0.12,0-0.22,0.04-0.3,0.12c-0.16,0.08-0.32,0.16-0.48,0.24c-0.16,0.08-0.32,0.12-0.48,0.12c0,0.08-0.04,0.12-0.12,0.12
		s-0.12,0.04-0.12,0.12c-0.08,0-0.18,0.02-0.3,0.06c-0.12,0.04-0.22,0.1-0.3,0.18c-0.24,0.08-0.46,0.22-0.66,0.42
		c-0.2,0.2-0.38,0.38-0.54,0.54c-0.08,0.08-0.16,0.16-0.24,0.24c-0.08,0.08-0.12,0.16-0.12,0.24c-0.08,0.08-0.16,0.16-0.24,0.24
		c-0.08,0.08-0.12,0.16-0.12,0.24c-0.08,0.08-0.2,0.16-0.36,0.24v0.12c-0.08,0.08-0.2,0.16-0.36,0.24c0,0.08,0,0.16,0,0.24
		c-0.08,0.08-0.16,0.16-0.24,0.24c-0.08,0.08-0.14,0.14-0.18,0.18c-0.04,0.04-0.1,0.1-0.18,0.18c-0.08,0.08-0.12,0.16-0.12,0.24
		c-0.08,0-0.14,0.02-0.18,0.06c-0.04,0.04-0.06,0.1-0.06,0.18c-0.16,0.08-0.28,0.18-0.36,0.3c-0.08,0.12-0.12,0.26-0.12,0.42
		c-0.08,0.08-0.16,0.16-0.24,0.24c-0.08,0.08-0.12,0.16-0.12,0.24c-0.16,0.24-0.32,0.46-0.48,0.66c-0.16,0.2-0.32,0.38-0.48,0.54
		c0,0.08-0.02,0.18-0.06,0.3c-0.04,0.12-0.1,0.22-0.18,0.3c-0.08,0.16-0.14,0.28-0.18,0.36c-0.04,0.08-0.06,0.16-0.06,0.24v27.16
		c-0.08,0.24-0.22,0.46-0.42,0.66c-0.2,0.2-0.38,0.38-0.54,0.54c-0.08,0.08-0.16,0.16-0.24,0.24c-0.08,0.08-0.16,0.16-0.24,0.24
		c-0.08,0.08-0.18,0.16-0.3,0.24c-0.12,0.08-0.22,0.16-0.3,0.24c-0.16,0.16-0.34,0.3-0.54,0.42c-0.2,0.12-0.42,0.26-0.66,0.42
		c-0.32,0.16-0.66,0.32-1.03,0.48c-0.36,0.16-0.75,0.32-1.15,0.48c-0.32,0.08-0.66,0.18-1.03,0.3c-0.36,0.12-0.75,0.22-1.15,0.3
		c-0.16,0.08-0.3,0.14-0.42,0.18c-0.12,0.04-0.22,0.06-0.3,0.06c-0.16,0.08-0.3,0.12-0.42,0.12c-0.12,0-0.22,0-0.3,0
		c-0.16,0-0.3,0-0.42,0c-0.12,0-0.22,0-0.3,0c-0.16,0-0.3,0-0.42,0c-0.12,0-0.22,0-0.3,0c-0.65,0-1.25-0.04-1.81-0.12
		c-0.56-0.08-1.13-0.16-1.69-0.24c-0.56-0.16-1.11-0.34-1.63-0.54c-0.52-0.2-0.99-0.46-1.39-0.78c-0.56-0.24-1.07-0.54-1.51-0.91
		c-0.44-0.36-0.79-0.7-1.03-1.03c-0.32-0.4-0.56-0.82-0.72-1.27c-0.16-0.44-0.28-0.91-0.36-1.39v-32.11
		c-0.08-0.08-0.18-0.16-0.3-0.24c-0.12-0.08-0.22-0.16-0.3-0.24c-0.16-0.08-0.3-0.16-0.42-0.24c-0.12-0.08-0.22-0.16-0.3-0.24
		c-0.08-0.08-0.18-0.16-0.3-0.24c-0.12-0.08-0.22-0.16-0.3-0.24c-0.08-0.08-0.18-0.16-0.3-0.24c-0.12-0.08-0.22-0.16-0.3-0.24
		c-0.16-0.08-0.3-0.14-0.42-0.18c-0.12-0.04-0.26-0.1-0.42-0.18c-0.08,0-0.18-0.02-0.3-0.06c-0.12-0.04-0.22-0.1-0.3-0.18
		c-0.32-0.16-0.6-0.26-0.84-0.3c-0.24-0.04-0.44-0.1-0.6-0.18c-0.08,0-0.16,0-0.24,0c-0.08,0-0.16-0.04-0.24-0.12h-0.24
		c-0.08,0-0.16,0-0.24,0c-0.08,0-0.16-0.04-0.24-0.12h-0.24c-0.08,0-0.2,0-0.36,0h-0.12l-0.12-0.12h-0.12c-0.08,0-0.16,0-0.24,0
		h-0.12c-0.08,0-0.2,0-0.36,0c-0.08,0-0.16,0-0.24,0l-0.12,0.12c-0.08,0-0.16,0-0.24,0H573c-0.08,0-0.16,0-0.24,0h-0.12
		c-0.08,0-0.16,0-0.24,0h-0.12c-0.08,0.08-0.2,0.12-0.36,0.12c-0.08,0-0.2,0-0.36,0c-0.48,0.08-0.91,0.18-1.27,0.3
		c-0.36,0.12-0.75,0.26-1.15,0.42c-0.32,0.08-0.66,0.22-1.03,0.42c-0.36,0.2-0.75,0.38-1.15,0.54c-0.32,0.16-0.67,0.34-1.03,0.54
		c-0.36,0.2-0.66,0.42-0.91,0.66c-0.16,0.08-0.3,0.18-0.42,0.3c-0.12,0.12-0.26,0.22-0.42,0.3c-0.08,0.16-0.18,0.28-0.3,0.36
		c-0.12,0.08-0.22,0.2-0.3,0.36c-0.08,0.08-0.2,0.16-0.36,0.24c0,0.08,0,0.16,0,0.24v0.12c-0.08,0.08-0.16,0.16-0.24,0.24
		c-0.08,0.08-0.12,0.16-0.12,0.24c-0.08,0-0.14,0.02-0.18,0.06c-0.04,0.04-0.06,0.1-0.06,0.18c-0.08,0.08-0.12,0.16-0.12,0.24
		c-0.08,0-0.14,0.02-0.18,0.06c-0.04,0.04-0.06,0.1-0.06,0.18c-0.08,0.08-0.12,0.16-0.12,0.24h-0.12c0,0.08-0.02,0.14-0.06,0.18
		c-0.04,0.04-0.06,0.1-0.06,0.18c-0.08,0.08-0.12,0.16-0.12,0.24c0,0.08,0,0.16,0,0.24c-0.08,0.08-0.14,0.14-0.18,0.18
		c-0.04,0.04-0.06,0.1-0.06,0.18c-0.08,0.08-0.14,0.14-0.18,0.18c-0.04,0.04-0.1,0.1-0.18,0.18l-0.12,0.24
		c-0.08,0.08-0.14,0.16-0.18,0.24c-0.04,0.08-0.06,0.16-0.06,0.24v0.12c-0.08,0.08-0.12,0.16-0.12,0.24c0,0.08,0,0.16,0,0.24
		c-0.08,0.08-0.16,0.2-0.24,0.36c0,0.08,0,0.14,0,0.18c0,0.04,0,0.1,0,0.18l-0.48,28.73c-0.16,0.08-0.3,0.16-0.42,0.24
		c-0.12,0.08-0.26,0.16-0.42,0.24c-0.16,0.08-0.3,0.14-0.42,0.18c-0.12,0.04-0.26,0.1-0.42,0.18c-0.08,0.08-0.2,0.14-0.36,0.18
		c-0.16,0.04-0.28,0.1-0.36,0.18c-0.16,0.08-0.3,0.14-0.42,0.18c-0.12,0.04-0.26,0.1-0.42,0.18c-0.16,0.08-0.32,0.14-0.48,0.18
		c-0.16,0.04-0.32,0.1-0.48,0.18c-0.24,0.08-0.44,0.14-0.6,0.18c-0.16,0.04-0.32,0.06-0.48,0.06c-0.24,0-0.46,0.04-0.66,0.12
		c-0.2,0.08-0.38,0.12-0.54,0.12c-0.08,0-0.18,0.02-0.3,0.06c-0.12,0.04-0.22,0.06-0.3,0.06c-0.08,0-0.16,0-0.24,0
		c-0.08,0.08-0.16,0.12-0.24,0.12c-0.08,0-0.2,0-0.36,0c-0.16,0.08-0.36,0.12-0.6,0.12c-0.08,0-0.16,0-0.24,0c-0.08,0-0.16,0-0.24,0
		c-0.16,0.08-0.34,0.12-0.54,0.12c-0.2,0-0.38,0-0.54,0c-0.16,0-0.3,0-0.42,0c-0.12,0-0.22,0-0.3,0c-0.08,0-0.2,0-0.36,0
		c-0.08,0-0.2,0-0.36,0h-0.12h-0.12c-0.32,0-0.66-0.02-1.03-0.06c-0.36-0.04-0.74-0.1-1.15-0.18c-0.24-0.08-0.46-0.14-0.66-0.18
		c-0.2-0.04-0.38-0.1-0.54-0.18c-0.08-0.08-0.18-0.14-0.3-0.18c-0.12-0.04-0.22-0.1-0.3-0.18c-0.32-0.16-0.66-0.32-1.03-0.48
		c-0.36-0.16-0.62-0.36-0.78-0.6c-0.24-0.24-0.44-0.48-0.6-0.72c-0.16-0.24-0.32-0.52-0.48-0.84v-41.16c0.16-0.4,0.36-0.74,0.6-1.03
		c0.24-0.28,0.52-0.58,0.85-0.91c0.32-0.24,0.66-0.48,1.03-0.72c0.36-0.24,0.74-0.44,1.15-0.6c0.4-0.16,0.82-0.3,1.27-0.42
		c0.44-0.12,0.95-0.22,1.51-0.3c0.4-0.08,0.86-0.14,1.39-0.18c0.52-0.04,1.07-0.06,1.63-0.06c0.08,0,0.14,0,0.18,0
		c0.04,0,0.1,0,0.18,0c0.08,0,0.16,0,0.24,0c0.08,0,0.16,0,0.24,0c0.08,0,0.16,0,0.24,0c0.08,0,0.14,0,0.18,0c0.04,0,0.1,0,0.18,0
		c0.08,0,0.16,0,0.24,0c0.08,0,0.18,0,0.3,0s0.26,0,0.42,0c0.16,0,0.28,0,0.36,0c0.16,0,0.28,0,0.36,0c0,0.08,0.04,0.12,0.12,0.12
		c0.08,0,0.16,0,0.24,0c0.16,0,0.28,0,0.36,0c0.16,0,0.28,0,0.36,0c0.16,0,0.28,0,0.36,0v0.12h0.12c0.08,0,0.16,0,0.24,0h0.12
		c0.08,0.08,0.18,0.14,0.3,0.18c0.12,0.04,0.26,0.1,0.42,0.18c0.08,0.08,0.18,0.14,0.3,0.18c0.12,0.04,0.22,0.1,0.3,0.18
		c0.08,0.08,0.18,0.16,0.3,0.24c0.12,0.08,0.22,0.12,0.3,0.12c0.16,0.08,0.3,0.16,0.42,0.24c0.12,0.08,0.26,0.16,0.42,0.24
		c0.08,0.08,0.18,0.16,0.3,0.24c0.12,0.08,0.22,0.16,0.3,0.24c0.08,0.08,0.18,0.16,0.3,0.24c0.12,0.08,0.22,0.16,0.3,0.24
		c0.08,0.08,0.18,0.16,0.3,0.24c0.12,0.08,0.26,0.12,0.42,0.12c0,0.08,0.02,0.12,0.06,0.12c0.04,0,0.1,0.04,0.18,0.12
		c0.08,0,0.16,0.02,0.24,0.06c0.08,0.04,0.16,0.1,0.24,0.18c0.08,0,0.18-0.02,0.3-0.06c0.12-0.04,0.22-0.06,0.3-0.06
		c0.16-0.08,0.34-0.14,0.54-0.18c0.2-0.04,0.42-0.1,0.66-0.18c0.16-0.08,0.32-0.14,0.48-0.18c0.16-0.04,0.36-0.1,0.6-0.18
		c0.16-0.08,0.32-0.14,0.48-0.18c0.16-0.04,0.32-0.1,0.48-0.18c0.24-0.08,0.52-0.16,0.85-0.24c0.32-0.08,0.64-0.16,0.96-0.24
		c0.16-0.08,0.34-0.14,0.54-0.18c0.2-0.04,0.38-0.1,0.54-0.18c0.16,0,0.34-0.02,0.54-0.06c0.2-0.04,0.38-0.1,0.54-0.18
		c0.24-0.08,0.52-0.16,0.84-0.24c0.32-0.08,0.64-0.16,0.97-0.24c0.16-0.08,0.34-0.14,0.54-0.18c0.2-0.04,0.38-0.1,0.54-0.18
		c0.16,0,0.34-0.02,0.54-0.06c0.2-0.04,0.38-0.1,0.54-0.18c0.24-0.08,0.52-0.16,0.84-0.24c0.32-0.08,0.64-0.16,0.96-0.24
		c0.16-0.08,0.32-0.14,0.48-0.18c0.16-0.04,0.32-0.1,0.48-0.18c0.16,0,0.32-0.02,0.48-0.06c0.16-0.04,0.32-0.1,0.48-0.18h5.67
		c0.64,0.24,1.29,0.46,1.93,0.66c0.64,0.2,1.33,0.38,2.05,0.54c0.48,0.16,0.95,0.3,1.39,0.42c0.44,0.12,0.86,0.26,1.27,0.42
		c0.24,0.08,0.46,0.14,0.67,0.18c0.2,0.04,0.42,0.1,0.66,0.18c0.24,0.08,0.46,0.16,0.66,0.24c0.2,0.08,0.38,0.16,0.54,0.24
		c0.16,0,0.28,0.02,0.36,0.06c0.08,0.04,0.16,0.06,0.24,0.06c0.32,0.16,0.64,0.28,0.96,0.36c0.32,0.08,0.6,0.2,0.85,0.36
		c0.56,0.24,1.15,0.48,1.75,0.72c0.6,0.24,1.23,0.48,1.87,0.72l4.1-0.24l14.49-4.95c0.08,0,0.14,0.02,0.18,0.06
		c0.04,0.04,0.1,0.06,0.18,0.06c0.08,0,0.16,0,0.24,0s0.18,0,0.3,0c0.12,0,0.26,0,0.42,0c0.08,0,0.18,0,0.3,0c0.12,0,0.26,0,0.42,0
		c0.08,0,0.2-0.02,0.36-0.06c0.16-0.04,0.32-0.1,0.48-0.18h0.12h0.12c0.08,0,0.16,0,0.24,0c0.08,0,0.16,0,0.24,0h0.12h0.12
		c0.08,0,0.16,0,0.24,0c0.08,0,0.16,0,0.24,0s0.16,0,0.24,0h0.12c0.08,0,0.16,0,0.24,0l0.12-0.12c0.08,0,0.16,0,0.24,0
		c0.16,0,0.28,0,0.36,0l1.93-0.24C624.94,479.26,626.04,479.51,627.13,479.75z"/>
</g>
</svg>
