<?xml version="1.0" standalone="no"?>
<!DOCTYPE svg PUBLIC "-//W3C//DTD SVG 20010904//EN"
 "http://www.w3.org/TR/2001/REC-SVG-20010904/DTD/svg10.dtd">
<svg version="1.0" xmlns="http://www.w3.org/2000/svg"
 width="1280.000000pt" height="798.000000pt" viewBox="0 0 1280.000000 798.000000"
 preserveAspectRatio="xMidYMid meet">
<g transform="translate(0.000000,798.000000) scale(0.100000,-0.100000)"
fill="#42350e" stroke="none">
<path d="M0 3990 l0 -3990 6400 0 6400 0 0 3990 0 3990 -6400 0 -6400 0 0
-3990z m3675 3841 c3 -6 -27 -19 -67 -31 -546 -157 -1010 -371 -1454 -671
-894 -605 -1572 -1507 -1904 -2531 -27 -84 -58 -186 -70 -226 -12 -40 -25 -70
-31 -67 -10 7 -13 3518 -2 3528 10 11 3521 8 3528 -2z m1143 -3 c17 -17 17
-4649 0 -4666 -9 -9 -541 -12 -2334 -12 -2098 0 -2323 2 -2335 16 -26 31 20
525 77 819 156 807 522 1565 1057 2194 116 136 382 402 518 518 768 654 1702
1042 2714 1128 201 17 288 18 303 3z m477 2 c1304 -76 2503 -442 3595 -1098
2102 -1262 3477 -3428 3730 -5873 23 -223 47 -676 37 -702 -6 -16 -226 -17
-3849 -15 l-3843 3 -3 3835 c-1 2109 0 3841 3 3848 5 15 95 16 330 2z m7363
-3098 c1 -1980 -1 -3102 -8 -3102 -11 0 -19 26 -71 255 -80 348 -199 729 -342
1092 -857 2175 -2650 3867 -4874 4596 -261 86 -450 139 -678 191 -207 47 -235
55 -235 66 0 7 1122 9 3103 8 l3102 -3 3 -3103z m-9643 -3152 l0 -1435 -85 2
c-121 3 -265 20 -410 49 -1209 241 -2133 1191 -2339 2405 -23 133 -46 382 -37
404 5 13 171 15 1438 13 l1433 -3 0 -1435z m245 1427 c0 -19 -87 -100 -99 -93
-12 8 -15 88 -4 99 13 13 103 8 103 -6z m687 -18 c295 -67 554 -254 712 -512
86 -139 147 -315 158 -454 l6 -73 -530 0 c-462 0 -532 2 -537 15 -10 27 -6
1017 5 1037 12 22 46 20 186 -13z m878 -233 c0 -164 -4 -260 -10 -262 -5 -2
-35 36 -65 84 -73 116 -245 288 -362 362 -48 30 -87 61 -87 68 -1 10 55 12
262 10 l262 -3 0 -259z m-1207 27 l-3 -228 -223 -3 c-193 -2 -223 0 -228 13
-10 25 35 148 77 214 43 65 110 129 176 167 53 32 140 63 176 64 l27 0 -2
-227z m0 -597 l2 -229 -46 6 c-62 7 -181 67 -245 125 -29 26 -70 74 -91 107
-41 63 -84 185 -74 210 5 13 37 15 228 13 l223 -3 3 -229z m-3413 -181 c58
-157 205 -447 303 -595 118 -180 229 -318 381 -473 334 -341 697 -575 1169
-752 43 -16 70 -31 65 -36 -5 -5 -431 -8 -994 -7 l-984 3 -3 980 c-1 539 0
987 4 995 7 21 14 9 59 -115z m3009 10 c25 -24 46 -49 46 -55 0 -7 -19 -10
-52 -8 l-53 3 -3 39 c-3 36 2 66 12 66 2 0 25 -20 50 -45z m1603 -210 c22 -39
-23 -306 -81 -478 -193 -577 -687 -1020 -1277 -1145 -152 -33 -277 -46 -294
-32 -13 11 -15 125 -15 829 0 622 3 820 12 829 9 9 207 12 830 12 716 0 818
-2 825 -15z m11 -1171 l-3 -489 -497 -3 c-327 -1 -498 1 -498 8 0 5 37 28 82
51 369 186 646 459 843 832 33 63 61 105 66 100 5 -5 8 -225 7 -499z"/>
</g>
</svg>
